<?xml version="1.0" encoding="UTF-8" standalone="no"?>
<!-- Created with Inkscape (http://www.inkscape.org/) -->
<svg
   xmlns:svg="http://www.w3.org/2000/svg"
   xmlns="http://www.w3.org/2000/svg"
   version="1.0"
   width="89.199997"
   height="89.419998"
   id="svg2188">
  <defs
     id="defs2190" />
  <path
     d="M 3.23057,41.23014 C 1.38743,39.387 1.23057,37.8968 1.23057,22.23014 C 1.23057,-0.24846 -0.24803,1.23014 22.23057,1.23014 C 44.70917,1.23014 43.23057,-0.24846 43.23057,22.23014 C 43.23057,44.70873 44.70917,43.23014 22.23057,43.23014 C 6.5639,43.23014 5.07371,43.07327 3.23057,41.23014 z "
     style="fill:#ff591f;fill-opacity:1;stroke:#000000;stroke-width:0.69999999;stroke-miterlimit:4;stroke-dasharray:none;stroke-opacity:1"
     id="path2925" />
  <path
     d="M 47.9869,86.21243 C 46.14376,84.36933 45.9869,82.87913 45.9869,67.21243 C 45.9869,44.73383 44.5083,46.21243 66.9869,46.21243 C 89.4655,46.21243 87.9869,44.73383 87.9869,67.21243 C 87.9869,89.69103 89.4655,88.21243 66.9869,88.21243 C 51.32023,88.21243 49.83003,88.05563 47.9869,86.21243 z "
     style="fill:#fffd3e;fill-opacity:1;stroke:#000000;stroke-width:0.69999999;stroke-miterlimit:4;stroke-dasharray:none;stroke-opacity:1"
     id="path3848" />
  <path
     d="M 3.23014,86.21293 C 1.387,84.36983 1.23014,82.87963 1.23014,67.21293 C 1.23014,44.73433 -0.24846,46.21293 22.23014,46.21293 C 44.70874,46.21293 43.23014,44.73433 43.23014,67.21293 C 43.23014,89.69153 44.70874,88.21293 22.23014,88.21293 C 6.56347,88.21293 5.07328,88.05603 3.23014,86.21293 z "
     style="fill:#87cefa;fill-opacity:1;stroke:#000000;stroke-width:0.69999999;stroke-miterlimit:4;stroke-dasharray:none;stroke-opacity:1"
     id="path3840" />
  <path
     d="M 28.15269,53.79731 L 33.194402,53.79731 L 41.814104,66.692013 L 50.480274,53.79731 L 55.521987,53.79731 L 44.369811,70.455872 L 56.265465,88.485222 L 51.223752,88.485222 L 41.465599,73.731823 L 31.637744,88.485222 L 26.572798,88.485222 L 38.956359,69.967964 L 28.15269,53.79731 M 67.138836,57.654104 L 67.138836,70.688209 L 73.040196,70.688209 C 75.224146,70.688226 76.91246,70.122874 78.105142,68.992149 C 79.297784,67.861463 79.894115,66.250594 79.894137,64.159539 C 79.894115,62.084022 79.297784,60.480898 78.105142,59.350164 C 76.91246,58.219487 75.224146,57.654135 73.040196,57.654104 L 67.138836,57.654104 M 62.445629,53.79731 L 73.040196,53.79731 C 76.927949,53.797344 79.863137,54.680224 81.845768,56.445951 C 83.84384,58.196254 84.842888,60.767447 84.842915,64.159539 C 84.842888,67.582659 83.84384,70.169341 81.845768,71.919595 C 79.863137,73.669881 76.927949,74.545017 73.040196,74.545003 L 67.138836,74.545003 L 67.138836,88.485222 L 62.445629,88.485222 L 62.445629,53.79731"
     style="font-size:47.5826149px;opacity:0.85"
     id="text2171" />
  <path
     d="M 47.9869,41.23047 C 46.14376,39.38733 45.9869,37.89713 45.9869,22.23046 C 45.9869,-0.24814 44.5083,1.23046 66.9869,1.23046 C 89.4655,1.23046 87.9869,-0.24814 87.9869,22.23046 C 87.9869,44.70903 89.4655,43.23047 66.9869,43.23047 C 51.32023,43.23047 49.83003,43.0736 47.9869,41.23047 z "
     style="fill:#42da42;fill-opacity:1;stroke:#000000;stroke-width:0.69999999;stroke-miterlimit:4;stroke-dasharray:none;stroke-opacity:1"
     id="path4747" />
</svg>
